<?xml version="1.0" encoding="UTF-8" standalone="no"?>
<!-- Created with Inkscape (http://www.inkscape.org/) -->

<svg
   xmlns:dc="http://purl.org/dc/elements/1.1/"
   xmlns:cc="http://creativecommons.org/ns#"
   xmlns:rdf="http://www.w3.org/1999/02/22-rdf-syntax-ns#"
   xmlns:svg="http://www.w3.org/2000/svg"
   xmlns="http://www.w3.org/2000/svg"
   xmlns:sodipodi="http://sodipodi.sourceforge.net/DTD/sodipodi-0.dtd"
   xmlns:inkscape="http://www.inkscape.org/namespaces/inkscape"
   width="210mm"
   height="297mm"
   viewBox="0 0 210 297"
   version="1.1"
   id="svg8"
   sodipodi:docname="github-logo.svg"
   inkscape:version="0.92.3 (2405546, 2018-03-11)">
  <defs
     id="defs2" />
  <sodipodi:namedview
     id="base"
     pagecolor="#ffffff"
     bordercolor="#666666"
     borderopacity="1.0"
     inkscape:pageopacity="0.0"
     inkscape:pageshadow="2"
     inkscape:zoom="0.93"
     inkscape:cx="-205.46208"
     inkscape:cy="723.06863"
     inkscape:document-units="mm"
     inkscape:current-layer="layer1"
     showgrid="true"
     inkscape:window-width="3411"
     inkscape:window-height="1830"
     inkscape:window-x="102"
     inkscape:window-y="55"
     inkscape:window-maximized="0">
    <inkscape:grid
       type="xygrid"
       id="grid3909" />
  </sodipodi:namedview>
  <metadata
     id="metadata5">
    <rdf:RDF>
      <cc:Work
         rdf:about="">
        <dc:format>image/svg+xml</dc:format>
        <dc:type
           rdf:resource="http://purl.org/dc/dcmitype/StillImage" />
        <dc:title></dc:title>
      </cc:Work>
    </rdf:RDF>
  </metadata>
  <g
     inkscape:label="Layer 1"
     inkscape:groupmode="layer"
     id="layer1">
    <path
       style="fill:#511356;fill-opacity:1;stroke-width:0.15507123"
       d="m -272.06782,108.8057 c -2.41056,-0.83355 -4.11862,-2.75495 -4.57139,-5.1423 -0.086,-0.45316 -0.15626,-0.91972 -0.15626,-1.03677 0,-0.17819 1.30683,-0.20631 8.02494,-0.17268 l 8.02494,0.0402 0.0419,3.29526 0.0419,3.29527 -5.31428,-0.005 c -4.63086,-0.004 -5.41424,-0.0397 -6.09165,-0.27388 z m 14.03597,-3.05509 v -3.33403 h 8.00771 8.0077 l -0.0844,0.93019 c -0.16578,1.82831 -1.4285,3.77115 -3.10601,4.77894 -1.49271,0.89677 -1.95967,0.95505 -7.66893,0.95709 l -5.15612,0.002 z m -33.45752,-12.031752 0.0398,-12.729576 1.27762,-0.02506 1.27762,-0.02506 0.0405,12.599692 c 0.0222,6.929826 0.0172,12.669396 -0.0113,12.754606 -0.029,0.0868 -0.62578,0.15492 -1.35778,0.15492 h -1.30609 l 0.0397,-12.729569 z m 18.72576,2.728339 v -3.334896 h 13.41674 13.41674 l -0.0419,3.29527 -0.0419,3.295261 -13.37489,0.03967 -13.3749,0.03958 z m 0,-17.446377 v -11.3202 h -1.3181 -1.31811 v 5.34996 5.349956 h -4.65214 c -2.55868,0 -4.65214,-0.03319 -4.65214,-0.07379 0,-0.04057 0.14072,-0.302267 0.31273,-0.581518 0.95059,-1.54335 1.16762,-3.750331 0.55619,-5.655872 -0.10318,-0.321441 -0.0579,-0.343608 0.79018,-0.387681 l 0.89958,-0.04675 0.10317,-1.353772 c 0.32735,-4.295387 2.14455,-8.157401 5.33333,-11.334706 1.53349,-1.527961 1.52373,-1.525829 2.06629,-0.451032 1.00559,1.992092 3.00396,4.272912 5.08245,5.800851 1.02489,0.753414 3.32889,1.987442 4.27876,2.291696 l 0.58152,0.186272 v 11.773397 11.773386 h -4.03186 -4.03185 z m 10.69992,-0.04079 V 67.599005 h 2.71374 2.71374 v 11.361006 11.36101 h -2.71374 -2.71374 z M -254,78.56678 V 66.8125 l 0.58152,-0.204686 c 3.71041,-1.306005 7.48374,-4.547693 9.26551,-7.960056 0.25587,-0.490026 0.535,-0.891209 0.62029,-0.891517 0.32582,-0.0014 2.9883,2.922846 3.69598,4.059059 2.13206,3.423097 2.90665,7.594674 2.17293,11.70248 l -0.25641,1.435467 -0.55772,-0.237901 c -0.87937,-0.375105 -2.74551,-0.45141 -3.76827,-0.154084 -0.47797,0.138949 -0.91064,0.252635 -0.96148,0.252635 -0.0507,0 -0.0924,-1.607704 -0.0924,-3.572674 v -3.572678 l -1.32403,0.04481 -1.32404,0.04481 0.002,4.538301 0.002,4.538299 -0.52162,0.966728 c -1.42437,2.639828 -1.04571,5.617181 0.98789,7.767404 l 0.78288,0.827785 v 1.962175 1.962173 h -4.65225 -4.65214 V 78.566761 Z m 11.9488,6.223381 c -1.00577,-0.368906 -2.09864,-1.526277 -2.40025,-2.541921 -0.30626,-1.031332 -0.30611,-1.432161 8.3e-4,-2.466298 0.44617,-1.502238 2.19904,-2.797028 3.78664,-2.797028 1.58867,0 3.28517,1.243532 3.79642,2.782773 0.62042,1.867913 -0.23573,3.948525 -1.99385,4.845455 -0.8368,0.426903 -2.28893,0.507486 -3.18991,0.177019 z m -49.32096,-6.647902 c -0.89568,-0.278112 -1.74842,-0.988425 -2.28746,-1.905369 -0.36385,-0.618952 -0.42583,-0.895527 -0.4232,-1.888204 0.003,-1.269448 0.19024,-1.762239 1.03186,-2.720792 0.99979,-1.138693 2.51034,-1.542141 4.07302,-1.087852 1.59714,0.464301 2.8782,2.159489 2.8782,3.808644 0,1.607837 -1.27716,3.335235 -2.80038,3.787582 -0.98645,0.292943 -1.54355,0.294293 -2.47204,0.006 z m 1.12426,-10.42914 -1.27933,-0.04504 v -7.340642 l -0.0141,-4.411079 h 2.67499 c -0.0602,0.08837 -0.0156,2.580601 -0.0213,5.860032 -0.006,3.279427 -0.0261,5.966909 -0.0456,5.972179 -0.0195,0.0053 -0.61114,-0.01064 -1.31478,-0.03548 z m 29.81245,-2.771972 c -6.38658,-0.528655 -11.73663,-5.064946 -13.209,-11.19987 -0.14467,-0.60274 -0.23236,-1.126562 -0.19486,-1.164049 0.0375,-0.03749 0.44962,0.03079 0.91586,0.151738 0.46624,0.12094 1.06022,0.219893 1.31996,0.219893 0.45399,0 0.48949,0.05076 0.91783,1.31234 0.54644,1.609443 1.62801,3.331114 2.84587,4.530155 0.82747,0.814686 4.7826,3.597599 4.89806,3.446372 0.026,-0.03416 0.30514,-0.931659 0.62009,-1.994421 0.61151,-2.063412 0.97853,-2.646267 1.91998,-3.049087 1.07404,-0.459552 2.37609,-0.129 3.06262,0.77751 0.20083,0.265186 0.61679,1.314941 0.92436,2.332788 0.30757,1.017847 0.58667,1.878075 0.62022,1.911623 0.0336,0.03354 0.9951,-0.564186 2.1368,-1.328303 3.14345,-2.103862 4.7274,-3.994415 5.63836,-6.729784 0.39192,-1.176841 0.41613,-1.209193 0.90456,-1.209193 0.27604,0 0.87032,-0.109417 1.32067,-0.243157 0.45034,-0.133736 0.85312,-0.208837 0.89506,-0.166891 0.1861,0.186095 -0.64453,2.797501 -1.33888,4.209292 -1.9767,4.019194 -5.51597,6.836318 -9.8266,7.82161 -1.29724,0.296509 -3.26055,0.463348 -4.37096,0.371434 z m -5.4772,-8.076741 c -1.37254,-1.381561 -2.06692,-2.574843 -2.51277,-4.318114 -0.26471,-1.03496 -0.30634,-1.721314 -0.30634,-5.049732 v -3.851975 h 9.3983 9.39828 l -0.0716,4.148155 c -0.0585,3.385772 -0.12166,4.304907 -0.34392,5.001047 -0.60568,1.896991 -1.73273,3.612878 -3.06452,4.665586 l -0.79945,0.631928 -0.40256,-0.794416 c -0.51758,-1.021414 -1.41804,-1.944058 -2.4024,-2.461617 -0.6911,-0.363361 -0.95567,-0.410085 -2.33033,-0.411565 -1.33403,-0.0014 -1.65905,0.05147 -2.32606,0.378666 -0.9895,0.485376 -2.12741,1.648462 -2.50064,2.555994 -0.15985,0.388674 -0.34722,0.706947 -0.41635,0.707263 -0.0692,3.12e-4 -0.66298,-0.54023 -1.31965,-1.20122 z m 3.44012,-8.356223 c 0.85147,-0.851468 0.28978,-2.227388 -0.90928,-2.227388 -0.75621,0 -1.31811,0.561889 -1.31811,1.318106 0,1.199061 1.37593,1.760748 2.22739,0.909282 z m 8.01925,-0.04446 c 0.48381,-0.483812 0.56374,-0.910429 0.27289,-1.456532 -0.65937,-1.238 -2.45582,-0.805157 -2.45582,0.591712 0,1.220882 1.30848,1.739268 2.18293,0.86482 z m -18.01787,1.606384 c -1.23316,-0.37875 -2.30446,-1.841662 -2.30753,-3.151033 -0.003,-1.566173 1.5314,-3.274488 2.9424,-3.274488 h 0.47447 l -0.0419,3.282445 c -0.0258,2.022442 -0.10136,3.297874 -0.19693,3.322638 -0.0853,0.0221 -0.47704,-0.05869 -0.87057,-0.179562 z m 25.13922,-3.099584 v -3.366772 l 0.646,0.08664 c 1.48407,0.199056 2.61049,1.597645 2.61049,3.241254 0,1.701215 -1.02099,2.924223 -2.75251,3.297108 l -0.50398,0.108535 z m -26.82732,-8.753429 v -2.63621 h 6.04778 6.04778 v -6.051439 -6.05144 l 2.67497,0.04243 2.67497,0.04243 0.0407,6.00901 0.0407,6.009011 h 5.96842 5.96842 v 2.63621 2.636211 h -14.73177 -14.73176 z m 1.11884,-5.473422 c -0.17654,-0.222967 -1.05574,-3.794218 -0.95576,-3.882261 0.0925,-0.08152 9.03005,-3.050015 9.18292,-3.050015 0.0654,0 0.10045,1.587543 0.0774,3.527871 l -0.0416,3.52787 -4.05758,0.03161 c -3.01012,0.02345 -4.09573,-0.01658 -4.20538,-0.155072 z M -254,29.378034 c 0,-1.961651 0.0522,-3.566638 0.11627,-3.566638 0.11815,0 9.07367,2.958895 9.15468,3.024703 0.0641,0.05207 -0.72242,3.346685 -0.89755,3.759664 l -0.14798,0.34891 H -249.88729 -254 Z"
       id="path3850"
       inkscape:connector-curvature="0"
       sodipodi:nodetypes="ccsccccccccccccccccccccccsccccccccccccccccccssccccsssccccccccccccccccccccccsccccsscccccccccccccccscssccccscsssscccccccccccsccssccccccssscsccccscsscccscccsscccccssssccscccsccccccccsccccccccccccccccccccccsccsccsscscccs"
       inkscape:export-xdpi="96"
       inkscape:export-ydpi="96" />
    <path
       style="fill:#3a0634;fill-opacity:1;stroke-width:0.07463195"
       d="m -284.28925,57.08315 c 0.40111,-0.191199 0.49567,-0.45183 0.43225,-1.191373 -0.0992,-1.157317 -0.24003,-1.254812 -1.81188,-1.254812 h -1.09864 l -0.0453,-0.385347 c -0.0249,-0.21194 -0.0971,-0.946849 -0.16034,-1.633129 -0.16749,-1.815006 -0.22759,-2.448011 -0.48788,-5.137934 -0.12892,-1.332193 -0.25129,-2.636861 -0.27193,-2.899262 l -0.0375,-0.477094 0.54203,-0.330296 c 0.98264,-0.598805 1.78523,-1.619503 2.17711,-2.768757 0.16498,-0.483875 0.19556,-0.710757 0.20059,-1.488389 0.007,-1.008097 -0.13181,-1.602813 -0.5628,-2.419583 -0.39951,-0.757125 -0.36175,-0.757267 -0.86725,0.0033 -0.94762,1.425686 -1.84404,2.470717 -3.2016,3.732411 -1.00015,0.929516 -2.39899,1.993173 -3.30882,2.515983 -0.28238,0.162263 -0.51342,0.316272 -0.51342,0.342245 0,0.02598 0.15414,0.137282 0.34257,0.247362 0.32634,0.190656 0.34075,0.213243 0.30406,0.476559 -0.0212,0.15203 -0.0905,0.870948 -0.15395,1.597599 -0.0635,0.72665 -0.14988,1.667994 -0.192,2.091874 -0.0782,0.786389 -0.26262,2.693376 -0.49887,5.156284 l -0.13201,1.376233 h -1.09079 c -1.57241,0 -1.7541,0.131977 -1.82444,1.325195 -0.0312,0.530398 -0.0148,0.665975 0.10181,0.838173 0.28059,0.414207 0.14927,0.405741 6.27141,0.40393 5.05107,-0.0014 5.66298,-0.01406 5.8875,-0.121111 z M -299.3375,45.048023 c 1.81378,-0.278239 3.16769,-0.69637 4.7808,-1.476463 5.78501,-2.797642 10.14615,-8.824075 10.15818,-14.037075 0.005,-1.949763 -0.48536,-3.394186 -1.59896,-4.714761 -1.46675,-1.739368 -3.94046,-1.96537 -7.30712,-0.667589 -0.47998,0.185021 -1.09464,0.449253 -1.36593,0.587181 l -0.49327,0.250778 0.75887,-0.04018 c 1.47125,-0.07791 2.96813,-0.185874 3.73325,-0.269258 0.42555,-0.04638 1.09982,-0.06782 1.49838,-0.04766 0.61556,0.03114 0.79838,0.07177 1.21429,0.269803 0.58727,0.279643 1.04639,0.754089 1.22057,1.261343 0.66939,1.949271 -0.30542,4.971931 -2.62857,8.150698 -2.73623,3.743975 -7.00236,7.055122 -10.61552,8.239193 -2.33686,0.765818 -4.20909,0.587365 -5.00637,-0.477188 -0.58286,-0.778241 -0.65122,-1.37852 -0.43785,-3.844568 0.2076,-2.399375 0.28065,-3.440777 0.24383,-3.476381 -0.0554,-0.05359 -0.7666,1.438037 -1.06115,2.225625 -0.80133,2.142619 -0.85016,3.993201 -0.1402,5.313506 0.4512,0.839082 1.31346,1.571359 2.47925,2.105502 1.04126,0.477088 1.75667,0.625555 3.16364,0.656526 0.64692,0.01423 1.27867,0.01018 1.40388,-0.0091 z m -4.61447,-4.577783 c 0.27781,-0.108241 0.38274,-0.367736 0.43407,-1.073519 0.0268,-0.368791 0.0829,-1.128472 0.12457,-1.688178 0.0755,-1.012395 0.30216,-4.201878 0.4481,-6.302383 0.0421,-0.605541 0.0933,-1.266133 0.1139,-1.46798 0.0206,-0.201849 0.0437,-0.548659 0.0513,-0.770691 0.0149,-0.434129 0.0887,-0.587192 0.28261,-0.587192 0.0674,0 2.0019,1.816627 4.29881,4.036948 3.71747,3.593492 4.20201,4.036947 4.41102,4.036947 0.44475,0 0.8427,-0.518666 0.6515,-0.849133 -0.0384,-0.06642 -1.9329,-1.925587 -4.20995,-4.131501 -3.66072,-3.54637 -4.13267,-4.029135 -4.07615,-4.16955 0.071,-0.176455 0.0663,-0.175773 2.1605,-0.314508 1.31212,-0.08693 4.01166,-0.267656 5.5017,-0.368329 0.56346,-0.03807 1.57083,-0.105027 2.23863,-0.148792 1.91814,-0.125713 2.00993,-0.139576 2.21086,-0.33393 0.1897,-0.183481 0.23751,-0.525577 0.10657,-0.762272 -0.12818,-0.231661 -0.4913,-0.322682 -1.08677,-0.272418 -0.30123,0.02544 -1.29894,0.09653 -2.21715,0.158003 -0.91822,0.06147 -2.14757,0.145171 -2.73188,0.185993 -1.74603,0.121982 -4.27651,0.287685 -5.04639,0.33045 -0.3965,0.02203 -0.81257,0.05373 -0.92457,0.07048 -0.17134,0.0256 -0.24446,-0.02446 -0.46079,-0.315405 -0.4889,-0.657512 -1.33674,-0.942787 -2.13493,-0.718349 -0.83137,0.233765 -1.41006,0.98112 -1.41153,1.822943 -8.2e-4,0.569084 0.21845,0.997367 0.74248,1.449137 l 0.42075,0.36271 -0.0918,1.268124 c -0.0504,0.697468 -0.14007,1.928714 -0.19909,2.736104 -0.0591,0.807391 -0.16112,2.227661 -0.22687,3.156159 -0.0657,0.928499 -0.15268,2.09459 -0.19318,2.591315 -0.0405,0.496725 -0.0737,1.096578 -0.0737,1.333007 0,0.389912 0.0217,0.447539 0.23348,0.619895 0.24495,0.199355 0.37872,0.223073 0.65376,0.115919 z m 1.92053,-8.056164 c 0.14608,-0.189986 0.48352,-0.588908 0.74985,-0.886493 l 0.48426,-0.541064 -0.46728,-0.450771 -0.46728,-0.450771 -0.25568,0.293341 c -0.24887,0.285539 -0.25698,0.315787 -0.30506,1.137685 -0.0272,0.46439 -0.0677,0.935177 -0.0898,1.046193 -0.0582,0.290836 0.048,0.245984 0.35104,-0.14812 z m 3.49074,-3.549756 c 0.18782,-0.163299 0.5976,-0.495234 0.91063,-0.737632 l 0.56913,-0.440723 -0.94856,0.04751 c -1.19745,0.05998 -1.27286,0.07585 -1.58659,0.333858 l -0.25858,0.212664 0.27551,0.294964 c 0.41159,0.440646 0.57689,0.592865 0.64006,0.589392 0.0314,-0.0017 0.21059,-0.13674 0.3984,-0.300041 z"
       id="path3848"
       inkscape:connector-curvature="0"
       inkscape:export-xdpi="96"
       inkscape:export-ydpi="96" />
    <path
       style="fill:#511356;stroke-width:0.26458332;fill-opacity:1"
       d="m -320.675,142.61565 v -10.05416 h -10.05416 c -9.87778,0 -10.05417,-0.009 -10.05417,-0.52917 0,-0.51988 0.17639,-0.52917 10.05417,-0.52917 H -320.675 V 68.003152 4.503153 h -10.05416 c -9.87778,0 -10.05417,-0.0093 -10.05417,-0.529166 0,-0.519883 0.17639,-0.529167 10.05417,-0.529167 H -320.675 V -6.609347 c 0,-9.877777 0.009,-10.054166 0.52917,-10.054166 0.51988,0 0.52917,0.176389 0.52917,10.054166 V 3.44482 H -171.45 -23.283338 V -6.609347 c 0,-9.877777 0.009,-10.054166 0.52917,-10.054166 0.51988,0 0.52917,0.176389 0.52917,10.054166 V 3.44482 h 10.05416 c 9.87777,0 10.05417,0.0093 10.05417,0.529167 0,0.519883 -0.1764,0.529166 -10.05417,0.529166 h -10.05416 v 63.499999 63.499998 h 10.05416 c 9.87777,0 10.05417,0.009 10.05417,0.52917 0,0.51988 -0.1764,0.52917 -10.05417,0.52917 h -10.05416 v 10.05416 c 0,9.87778 -0.009,10.05417 -0.52917,10.05417 -0.51988,0 -0.52917,-0.17639 -0.52917,-10.05417 V 132.56149 H -171.45 -319.61666 v 10.05416 c 0,9.87778 -0.009,10.05417 -0.52917,10.05417 -0.51988,0 -0.52917,-0.17639 -0.52917,-10.05417 z M -23.283338,68.003152 V 4.503153 H -171.45 -319.61666 V 68.003152 131.50315 H -171.45 -23.283338 Z"
       id="path4883"
       inkscape:connector-curvature="0"
       sodipodi:nodetypes="scssscccssscssscccssscssscccssscssscccsssccccccccc"
       inkscape:export-xdpi="96"
       inkscape:export-ydpi="96" />
    <flowRoot
       xml:space="preserve"
       id="flowRoot5257"
       style="font-style:normal;font-variant:normal;font-weight:normal;font-stretch:normal;font-size:53.33494949px;line-height:1.25;font-family:'Abyssinica SIL';-inkscape-font-specification:'Abyssinica SIL, Normal';font-variant-ligatures:normal;font-variant-caps:normal;font-variant-numeric:normal;font-feature-settings:normal;text-align:start;letter-spacing:0px;word-spacing:0px;writing-mode:lr-tb;text-anchor:start;fill:#3a0634;fill-opacity:1;stroke:none"
       transform="matrix(0.71106844,0,0,0.62280297,351.57005,-67.559914)"
       inkscape:export-xdpi="96"
       inkscape:export-ydpi="96"><flowRegion
         id="flowRegion5259"
         style="font-style:normal;font-variant:normal;font-weight:normal;font-stretch:normal;font-size:53.33494949px;font-family:'Abyssinica SIL';-inkscape-font-specification:'Abyssinica SIL, Normal';font-variant-ligatures:normal;font-variant-caps:normal;font-variant-numeric:normal;font-feature-settings:normal;text-align:start;writing-mode:lr-tb;text-anchor:start;fill:#3a0634;fill-opacity:1"><rect
           id="rect5261"
           width="710"
           height="180"
           x="-810"
           y="182.51968"
           style="font-style:normal;font-variant:normal;font-weight:normal;font-stretch:normal;font-size:53.33494949px;font-family:'Abyssinica SIL';-inkscape-font-specification:'Abyssinica SIL, Normal';font-variant-ligatures:normal;font-variant-caps:normal;font-variant-numeric:normal;font-feature-settings:normal;text-align:start;writing-mode:lr-tb;text-anchor:start;fill:#3a0634;fill-opacity:1" /></flowRegion><flowPara
         id="flowPara5263"
         style="font-style:normal;font-variant:normal;font-weight:normal;font-stretch:normal;font-size:53.33494949px;font-family:'Abyssinica SIL';-inkscape-font-specification:'Abyssinica SIL, Normal';font-variant-ligatures:normal;font-variant-caps:normal;font-variant-numeric:normal;font-feature-settings:normal;text-align:start;writing-mode:lr-tb;text-anchor:start;opacity:0.98000004;fill:#3a0634;fill-opacity:1">radiopadre</flowPara></flowRoot>  </g>
</svg>
